<svg xmlns="http://www.w3.org/2000/svg" width="64" height="64" viewBox="0 0 64 64" role="img" aria-labelledby="title desc">
  <title id="title">iScaleXchange</title>
  <desc id="desc">An exchange monogram for the iScaleXchange problem and solution network.</desc>
  <defs>
    <linearGradient id="tile" x1="7" x2="58" y1="6" y2="59" gradientUnits="userSpaceOnUse">
      <stop stop-color="#FF7A1A"/>
      <stop offset="0.48" stop-color="#15C8B5"/>
      <stop offset="1" stop-color="#38BDF8"/>
    </linearGradient>
    <linearGradient id="core" x1="18" x2="47" y1="17" y2="48" gradientUnits="userSpaceOnUse">
      <stop stop-color="#FFFFFF"/>
      <stop offset="0.48" stop-color="#E9FDF9"/>
      <stop offset="1" stop-color="#DDF7FF"/>
    </linearGradient>
    <radialGradient id="glass" cx="0" cy="0" r="1" gradientTransform="matrix(32 34 -34 32 20 12)" gradientUnits="userSpaceOnUse">
      <stop stop-color="#FFFFFF" stop-opacity="0.38"/>
      <stop offset="0.34" stop-color="#14B8A6" stop-opacity="0.16"/>
      <stop offset="1" stop-color="#09090B" stop-opacity="0.92"/>
    </radialGradient>
    <filter id="glow" x="-32" y="-32" width="128" height="128" color-interpolation-filters="sRGB">
      <feGaussianBlur stdDeviation="3.4" result="blur"/>
      <feColorMatrix in="blur" type="matrix" values="0 0 0 0 0.10 0 0 0 0 0.80 0 0 0 0 0.72 0 0 0 0.55 0" result="softGlow"/>
      <feMerge>
        <feMergeNode in="softGlow"/>
        <feMergeNode in="SourceGraphic"/>
      </feMerge>
    </filter>
  </defs>
  <rect x="4.5" y="4.5" width="55" height="55" rx="15" fill="#09090B"/>
  <rect x="5.5" y="5.5" width="53" height="53" rx="14" fill="url(#glass)" stroke="url(#tile)" stroke-width="1.5"/>
  <path d="M17 22.5h23.8c4.4 0 7.9 3.5 7.9 7.9v.7" fill="none" stroke="#14B8A6" stroke-width="3.2" stroke-linecap="round"/>
  <path d="M42.6 16.7 49 23l-6.4 6.2" fill="none" stroke="#14B8A6" stroke-width="3.2" stroke-linecap="round" stroke-linejoin="round"/>
  <path d="M47 41.5H23.2c-4.4 0-7.9-3.5-7.9-7.9v-.7" fill="none" stroke="#FF7A1A" stroke-width="3.2" stroke-linecap="round"/>
  <path d="M21.4 47.3 15 41l6.4-6.2" fill="none" stroke="#FF7A1A" stroke-width="3.2" stroke-linecap="round" stroke-linejoin="round"/>
  <g filter="url(#glow)">
    <circle cx="32" cy="32" r="12.2" fill="#09090B" stroke="url(#tile)" stroke-width="1.4"/>
    <text x="32" y="32.8" text-anchor="middle" dominant-baseline="central" font-family="'Segoe UI', system-ui, -apple-system, 'Helvetica Neue', Arial, sans-serif" font-weight="900" font-size="18" letter-spacing="-1" fill="url(#core)">iX</text>
  </g>
  <circle cx="50.2" cy="19.6" r="2.1" fill="#F97316"/>
  <circle cx="13.8" cy="44.4" r="1.8" fill="#2DD4BF"/>
</svg>
